<?xml version="1.0" encoding="UTF-8"?>
<svg width="150px" height="59px" viewBox="0 0 150 59" version="1.1" xmlns="http://www.w3.org/2000/svg" xmlns:xlink="http://www.w3.org/1999/xlink">
    <!-- Generator: Sketch 60 (88103) - https://sketch.com -->
    <title>The_Blackstone_Group_logo_(2)</title>
    <desc>Created with Sketch.</desc>
    <g id="Design" stroke="none" stroke-width="1" fill="none" fill-rule="evenodd">
        <g id="1.3-services_1440" transform="translate(-820.000000, -7586.000000)" fill="#FFFFFF" fill-rule="nonzero">
            <g id="The_Blackstone_Group_logo_(2)" transform="translate(820.000000, 7586.000000)">
                <path d="M149.859287,0 L0.773921201,0 L0.773921201,58.5365854 L149.859287,58.5365854 L149.859287,0 Z M148.595364,1.2588513 L148.595364,57.2777341 L2.03686909,57.2777341 L2.03686909,1.2588513 L148.595364,1.2588513 Z" id="rectangle" transform="translate(75.316604, 29.268293) scale(-1, 1) rotate(-180.000000) translate(-75.316604, -29.268293) "></path>
                <path d="M17.0036616,30.389532 C20.4450463,30.389532 23.8333232,31.5534852 23.8333232,34.9919525 C23.8333232,37.6829268 21.1991769,39.2206265 19.6484295,39.6050514 C22.7074381,39.9787978 25.7558252,41.505819 25.7558252,44.5705398 C25.7558252,48.393432 22.7074381,50.304878 18.8942989,50.304878 L9.00562852,50.304878 L9.00562852,49.5573852 L10.5245113,49.5573852 C11.661018,49.1836387 11.661018,49.1836387 11.661018,48.0196855 L11.661018,44.1967934 L11.661018,36.5296521 L11.661018,32.7067599 C11.661018,31.5534852 11.661018,31.5534852 10.5245113,31.5534852 C9.00562852,31.1797388 9.00562852,31.1797388 9.00562852,31.1797388 L9.00562852,30.389532 L17.0036616,30.389532 L17.0036616,30.389532 Z M14.7094051,31.5534852 L14.7094051,39.6050514 L16.631907,39.6050514 C19.2766749,39.6050514 20.8168008,38.4410982 20.8168008,35.3763774 C20.8168008,33.0805064 19.2766749,31.1797388 16.631907,31.1797388 C15.8459118,31.1797388 14.7094051,31.5534852 14.7094051,31.5534852 Z M14.7094051,40.3525443 L14.7094051,47.2721926 C14.7094051,49.1836387 15.8459118,49.5573852 18.1401683,49.5573852 C21.1991769,49.5573852 22.7074381,47.6459391 22.7074381,44.5705398 C22.7074381,41.505819 19.6484295,40.3525443 16.631907,40.3525443 L14.7094051,40.3525443 Z M31.8313563,44.1967934 L31.8313563,48.0196855 C31.8313563,49.1836387 32.2137324,49.1836387 32.9997277,49.5573852 L34.1362343,49.5573852 L34.1362343,50.304878 L27.274708,50.304878 L27.274708,49.5573852 L28.0288386,49.5573852 C29.1865884,49.1836387 29.1865884,49.1836387 29.1865884,48.0196855 L29.1865884,44.1967934 L29.1865884,32.3009781 C29.1865884,31.1797388 28.8148339,30.7632784 27.6464625,30.7632784 L26.5099558,30.7632784 L26.5099558,30.0157856 C28.4005931,30.0157856 30.3230951,29.6420391 31.8313563,29.2682927 L31.8313563,34.9919525 L31.8313563,44.1967934 L31.8313563,44.1967934 Z M42.5060219,48.7671784 C41.3801368,49.5573852 40.2117654,50.304878 38.7035042,50.304878 C36.7810022,50.304878 35.6444956,48.7671784 35.6444956,47.2721926 C35.6444956,44.1967934 39.0858803,43.4172651 42.5060219,43.0435186 L42.5060219,39.6050514 C42.5060219,38.4410982 41.7625129,37.6829268 40.5941415,37.6829268 C39.4576348,37.6829268 39.0858803,38.0673517 38.7035042,38.8148446 C38.3211281,39.9787978 37.9493736,40.3525443 37.1846214,40.3525443 C36.4092477,40.3525443 36.0268716,39.9787978 36.0268716,39.6050514 C36.0268716,38.0673517 39.0858803,36.9033985 40.965896,36.9033985 C44.0249047,36.9033985 45.1507898,37.6829268 45.1507898,39.9787978 L45.1507898,47.2721926 C45.1507898,48.0196855 45.5650306,48.393432 46.3191612,48.393432 C47.0732918,48.393432 47.4556679,48.0196855 47.8274224,48.0196855 L48.2097985,48.393432 C47.0732918,49.5573852 45.9474066,50.304878 44.3966592,50.304878 C43.2707741,50.304878 42.888398,49.5573852 42.5060219,48.7671784 L42.5060219,48.7671784 Z M42.5060219,43.7910115 C40.2117654,43.7910115 37.9493736,44.5705398 37.9493736,46.4819859 C37.9493736,47.6459391 39.0858803,48.7671784 40.2117654,48.7671784 C41.3801368,48.7671784 42.1342674,48.393432 42.5060219,48.0196855 L42.5060219,43.7910115 L42.5060219,43.7910115 Z M59.6385947,38.8148446 C59.6385947,39.6050514 59.2562186,39.9787978 58.5127096,39.9787978 C57.7160927,39.9787978 57.3443382,39.2206265 56.9619621,38.8148446 C56.5902076,38.0673517 55.8254554,37.6829268 55.0713248,37.6829268 C52.7770683,37.6829268 51.2581856,39.6050514 51.2581856,42.6697722 C51.2581856,46.1082394 53.1488229,48.393432 56.2078315,48.393432 C57.7160927,48.393432 58.8844641,48.0196855 59.6385947,47.2721926 L60.0209708,47.6459391 C58.5127096,49.5573852 56.5902076,50.304878 54.6995703,50.304878 C51.2581856,50.304878 48.9639291,47.2721926 48.9639291,43.7910115 C48.9639291,39.9787978 51.2581856,36.9033985 55.4537009,36.9033985 C57.7160927,36.9033985 59.6385947,37.6829268 59.6385947,38.8148446 L59.6385947,38.8148446 Z M65.7141258,44.1967934 L65.7141258,48.0196855 C65.7141258,49.1836387 66.0965018,49.1836387 66.8824971,49.5573852 L68.0190038,49.5573852 L68.0190038,50.304878 L60.7751014,50.304878 L60.7751014,49.5573852 L61.9009865,49.5573852 C63.0693579,49.1836387 63.0693579,49.1836387 63.0693579,48.0196855 L63.0693579,44.1967934 L63.0693579,32.3009781 C63.0693579,31.1797388 62.6976033,30.7632784 61.529232,30.7632784 L60.3927253,30.7632784 L60.3927253,30.0157856 C62.3152273,30.0157856 64.2058646,29.6420391 65.7141258,29.2682927 L65.7141258,34.9919525 L65.7141258,43.4172651 L70.6956364,38.8148446 C71.0673909,38.4410982 70.6956364,38.0673517 70.2813956,37.6829268 L69.1555105,37.6829268 L69.1555105,36.9033985 L74.8805302,36.9033985 L74.8805302,37.6829268 C73.3404043,37.6829268 72.9580282,38.0673517 72.2038976,38.8148446 L68.0190038,42.6697722 C73.3404043,48.393432 73.3404043,48.393432 73.3404043,48.393432 C74.0945349,49.1836387 74.476911,49.5573852 75.6346608,49.5573852 L75.6346608,50.304878 L69.1555105,50.304878 L69.1555105,49.5573852 L70.2813956,49.5573852 C70.6956364,49.5573852 70.6956364,49.1836387 70.2813956,48.7671784 C68.3907583,46.4819859 68.3907583,46.4819859 68.3907583,46.4819859 C66.8824971,44.9549647 66.0965018,43.7910115 65.7141258,43.7910115 L65.7141258,44.1967934 L65.7141258,44.1967934 Z M78.2794287,49.9311316 C78.2794287,49.9311316 77.8970526,49.9311316 77.5252981,50.304878 L77.1535435,50.304878 L77.1535435,45.734493 L77.5252981,45.734493 C78.2794287,48.393432 79.4478,49.5573852 81.3384373,49.5573852 C83.2503177,49.5573852 84.0150699,48.7671784 84.0150699,47.6459391 C84.0150699,46.4819859 83.6326938,45.734493 80.9560612,44.9549647 C79.065424,44.1967934 77.5252981,43.0435186 77.5252981,40.7583261 C77.5252981,38.0673517 79.8301761,36.9033985 82.0925679,36.9033985 C83.6326938,36.9033985 84.3868244,37.277145 84.7692005,37.277145 L85.5233311,36.9033985 L85.8950856,36.9033985 L85.8950856,41.1320726 L85.140955,41.1320726 C84.7692005,38.8148446 84.0150699,37.6829268 82.0925679,37.6829268 C80.5736852,37.6829268 79.4478,38.4410982 79.4478,39.6050514 C79.4478,41.1320726 80.2019306,41.505819 82.4643225,42.2639903 C84.7692005,43.4172651 86.2774617,44.1967934 86.2774617,46.1082394 C86.2774617,49.1836387 84.0150699,50.304878 81.3384373,50.304878 C79.8301761,50.304878 79.065424,49.9311316 78.2794287,49.9311316 L78.2794287,49.9311316 Z M89.7082249,47.6459391 L89.7082249,38.4410982 L88.1999637,38.4410982 L88.1999637,38.0673517 C89.7082249,36.9033985 90.8447316,35.7821592 92.0024814,33.8386777 L92.3848575,33.8386777 L92.3848575,37.277145 L96.5803728,37.277145 L96.5803728,38.4410982 L92.3848575,38.4410982 L92.3848575,46.8664108 C92.3848575,48.393432 93.1389881,48.7671784 94.2754948,48.7671784 C95.0296254,48.7671784 95.4120015,48.7671784 96.5803728,48.0196855 L96.5803728,48.393432 C95.4120015,49.9311316 94.2754948,50.304878 92.7672336,50.304878 C90.8447316,50.304878 89.7082249,49.1836387 89.7082249,47.6459391 L89.7082249,47.6459391 Z M97.7062579,43.7910115 C97.7062579,39.6050514 101.137021,36.9033985 104.578406,36.9033985 C107.966683,36.9033985 111.408068,39.6050514 111.408068,43.7910115 C111.408068,47.6459391 107.966683,50.304878 104.578406,50.304878 C101.137021,50.304878 97.7062579,48.0196855 97.7062579,43.7910115 Z M108.380924,43.7910115 C108.380924,40.3525443 106.840798,37.6829268 104.19603,37.6829268 C101.891152,37.6829268 100.765267,40.3525443 100.765267,43.4172651 C100.765267,46.8664108 101.891152,49.5573852 104.578406,49.5573852 C107.223174,49.5573852 108.380924,46.8664108 108.380924,43.7910115 L108.380924,43.7910115 Z M123.208618,41.505819 C123.208618,39.6050514 122.454488,38.4410982 120.946226,38.4410982 C119.023725,38.4410982 118.269594,39.2206265 117.515463,39.6050514 L117.515463,44.1967934 L117.515463,48.0196855 C117.515463,49.1836387 117.897839,49.1836387 118.641348,49.5573852 L119.777855,49.5573852 L119.777855,50.304878 L112.565817,50.304878 L112.565817,49.5573852 L113.702324,49.5573852 C114.838831,49.1836387 114.838831,49.1836387 114.838831,48.0196855 L114.838831,44.1967934 L114.838831,40.7583261 C114.838831,39.2206265 114.456455,38.4410982 113.319948,38.4410982 L112.565817,38.4410982 L112.565817,37.6829268 C114.456455,37.6829268 115.964716,37.277145 117.515463,36.5296521 L117.515463,38.8148446 C119.023725,37.6829268 120.531986,36.9033985 122.454488,36.9033985 C124.71688,36.9033985 126.267627,38.4410982 126.267627,40.7583261 L126.267627,44.1967934 L126.267627,48.0196855 C126.267627,49.1836387 126.267627,49.1836387 127.393512,49.5573852 L128.158264,49.5573852 L128.158264,50.304878 L121.317981,50.304878 L121.317981,49.5573852 L122.082733,49.5573852 C123.208618,49.1836387 123.208618,49.1836387 123.208618,48.0196855 L123.208618,44.1967934 L123.208618,41.505819 Z M129.284149,43.7910115 C129.284149,40.3525443 131.589027,36.9033985 135.391545,36.9033985 C138.450554,36.9033985 140.341191,39.2206265 140.712946,42.2639903 L131.589027,42.2639903 C131.589027,45.734493 133.097289,48.393432 136.528052,48.393432 C138.450554,48.393432 139.958815,47.6459391 140.341191,47.2721926 L140.712946,47.6459391 C139.204684,49.1836387 137.282182,50.304878 135.019791,50.304878 C131.589027,50.304878 129.284149,47.2721926 129.284149,43.7910115 Z M131.960782,41.505819 L138.078799,41.505819 C138.078799,39.6050514 136.910428,37.6829268 135.019791,37.6829268 C133.097289,37.6829268 131.960782,39.6050514 131.960782,41.505819 Z" id="Blackstone"></path>
            </g>
        </g>
    </g>
</svg>