<?xml version="1.0" encoding="UTF-8"?>
<svg width="109px" height="62px" viewBox="0 0 109 62" version="1.1" xmlns="http://www.w3.org/2000/svg" xmlns:xlink="http://www.w3.org/1999/xlink">
    <!-- Generator: Sketch 60 (88103) - https://sketch.com -->
    <title>Group 10</title>
    <desc>Created with Sketch.</desc>
    <g id="Design" stroke="none" stroke-width="1" fill="none" fill-rule="evenodd">
        <g id="1.3-services_1440" transform="translate(-361.000000, -7585.000000)" fill="#FFFFFF" fill-rule="nonzero">
            <g id="Group-10" transform="translate(361.000000, 7585.000000)">
                <path d="M23.6123797,8.85077636 L23.6123797,-4.47641924e-13 L33.0129195,-4.47641924e-13 L42.4134594,-4.47641924e-13 L42.4134594,8.85077636 L42.4134594,17.7015527 L33.0129195,17.7015527 L23.6123797,17.7015527 L23.6123797,8.85077636 Z M34.0714055,14.975958 C34.3896915,14.8870799 34.8264095,14.7241367 35.0336655,14.6130391 C35.5592075,14.3241853 36.1957795,13.6724127 36.4548495,13.1465507 C36.6621055,12.7317862 36.6769095,12.6503147 36.6769095,11.8504119 C36.6769095,11.1393871 36.6547035,10.946818 36.5214675,10.6579642 C36.3216135,10.2283867 35.9145035,9.76918328 35.4851875,9.50254901 C35.3075395,9.3914514 35.1594995,9.27294728 35.1594995,9.25072776 C35.1594995,9.22110173 35.3519515,9.13222364 35.5888155,9.05075206 C37.3356875,8.41379242 38.2609375,6.73251524 37.7576015,5.11789662 C37.4689235,4.1994897 36.8471555,3.4958715 35.9515135,3.07370058 C34.9004295,2.57005807 34.8412135,2.56265156 31.5547256,2.53302553 L28.5717196,2.51080601 L28.5717196,8.85077636 L28.5717196,15.1981532 L31.0365856,15.1685272 C33.2497835,15.1389011 33.5532655,15.1166816 34.0714055,14.975958 Z" id="Shape" transform="translate(33.012920, 8.850776) scale(-1, 1) rotate(-180.000000) translate(-33.012920, -8.850776) "></path>
                <path d="M30.7923196,6.15480766 L30.7923196,4.44390445 L31.8137956,4.48834349 C33.2349795,4.55500206 33.8641495,4.76979077 34.2416515,5.34009184 C34.5599375,5.80670181 34.5599375,6.68066968 34.2416515,7.14727965 C33.8937575,7.67314168 33.1905675,7.87311738 31.6953636,7.87311738 L30.7923196,7.87311738 L30.7923196,6.15480766 Z" id="Path" transform="translate(32.636343, 6.158511) scale(-1, 1) rotate(-180.000000) translate(-32.636343, -6.158511) "></path>
                <path d="M30.7923196,11.5245255 L30.7923196,9.77658978 L32.4799756,9.80621581 C33.8863555,9.82843533 34.2046415,9.85065486 34.4563095,9.96175247 C35.2927355,10.3320778 35.6036195,10.7690618 35.6036195,11.5689646 C35.6036195,12.4058999 35.1594995,12.8947294 34.1602295,13.1539572 C33.8345415,13.2428353 33.3386075,13.2724613 32.2579156,13.2724613 L30.7923196,13.2724613 L30.7923196,11.5245255 Z" id="Path" transform="translate(33.197970, 11.524526) scale(-1, 1) rotate(-180.000000) translate(-33.197970, -11.524526) "></path>
                <path d="M45.2262194,8.88780889 L45.2262194,1.86517468e-13 L54.6489652,0.0148130148 L64.0643091,0.0370325371 L64.0865151,8.91002842 L64.1013191,17.7756178 L54.6637692,17.7756178 L45.2262194,17.7756178 L45.2262194,8.88780889 Z M55.6260292,15.0796491 C57.1286352,14.6648847 58.0982972,13.7094452 58.3351612,12.4207129 C58.4313872,11.8726314 58.3203572,11.0875416 58.0760912,10.6061186 C57.8910412,10.2357932 57.2766752,9.61364662 56.9583892,9.46551647 C56.7585352,9.37663838 56.7067212,9.25813426 56.8769672,9.25813426 C57.1360372,9.25813426 58.2389352,8.61376812 58.5942312,8.25825576 C60.2670832,6.58438509 59.5712952,3.87360338 57.2396652,2.99222899 C56.2848072,2.62931013 55.8628932,2.59227759 52.9168973,2.59227759 L50.1855593,2.59227759 L50.1855593,8.93224794 L50.1855593,15.2722183 L52.6874353,15.2425923 C54.7303872,15.2129662 55.2633312,15.1833402 55.6260292,15.0796491 Z" id="Shape" transform="translate(54.663769, 8.887809) scale(-1, 1) rotate(-180.000000) translate(-54.663769, -8.887809) "></path>
                <path d="M52.4061593,6.14740115 L52.4061593,4.42168492 L53.3980273,4.46612397 C54.5453372,4.51056301 55.1597032,4.65869316 55.5520092,4.98457949 C56.2255912,5.54006754 56.3070132,6.73992174 55.7222552,7.31762932 C55.3225472,7.70276771 54.9524472,7.7916458 53.6126853,7.82867833 L52.4061593,7.87311738 L52.4061593,6.14740115 Z" id="Path" transform="translate(54.259939, 6.147401) scale(-1, 1) rotate(-180.000000) translate(-54.259939, -6.147401) "></path>
                <path d="M52.4061593,11.5245255 L52.4061593,9.77658978 L54.0938153,9.80621581 L55.7814712,9.82843533 L56.2922092,10.0876631 C57.0768212,10.480208 57.3877052,11.0727286 57.2322632,11.8504119 C57.1286352,12.3392413 56.9287812,12.6280951 56.4994652,12.8799164 C55.9517172,13.1983962 55.4705872,13.2724613 53.8717553,13.2724613 L52.4061593,13.2724613 L52.4061593,11.5245255 Z" id="Path" transform="translate(54.838624, 11.524526) scale(-1, 1) rotate(-180.000000) translate(-54.838624, -11.524526) "></path>
                <path d="M66.8400591,8.85077636 L66.8400591,-4.47641924e-13 L76.277609,-4.47641924e-13 L85.7151588,-4.47641924e-13 L85.7151588,8.85077636 L85.7151588,17.7015527 L76.277609,17.7015527 L66.8400591,17.7015527 L66.8400591,8.85077636 Z M78.9645349,15.1092751 C79.6899309,14.961145 80.9260649,14.5908196 81.5182249,14.3389983 L81.7920989,14.2204942 L81.7920989,13.1021116 C81.7920989,12.4873715 81.7698929,11.998542 81.7402849,12.013355 C81.7032749,12.028168 81.4516069,12.1540787 81.1629289,12.3022088 C79.7935589,13.0132335 78.5278169,13.3317133 77.0918289,13.3317133 C76.018539,13.3317133 75.293143,13.1761767 74.464119,12.7614123 C73.716517,12.3836804 72.813473,11.4948995 72.480383,10.8060943 C71.407093,8.58414209 72.273127,5.92520593 74.397501,4.90310791 C75.389369,4.42168492 75.811283,4.34021334 77.1288389,4.34021334 C78.0688929,4.34021334 78.3945809,4.36983937 78.9275249,4.50315651 C79.6899309,4.6957257 80.8298389,5.15492916 81.4442049,5.51784802 L81.8661189,5.76966927 L81.8661189,4.62166062 L81.8661189,3.47365198 L81.3849889,3.25145675 C80.7854269,2.98482249 79.9638049,2.71078171 79.2532129,2.55524506 C78.5204149,2.38489539 76.3368249,2.32564333 75.589223,2.44414745 C72.783865,2.8959444 70.607677,4.76238427 69.941497,7.2954098 C69.726839,8.11753212 69.719437,9.28776029 69.934095,10.1691347 C70.526255,12.5836561 72.295333,14.3167788 74.908239,15.0278035 C76.129569,15.3610964 77.5877629,15.3907224 78.9645349,15.1092751 Z" id="Shape" transform="translate(76.277609, 8.850776) scale(-1, 1) rotate(-180.000000) translate(-76.277609, -8.850776) "></path>
                <path d="M90.6374888,61.9139828 C89.6530228,61.8251047 88.0763968,61.536251 87.1289408,61.2622102 C81.9031289,59.7512827 78.1429129,55.9739639 76.6181009,50.7005306 C75.818685,47.9453099 75.715057,44.2346496 76.3590309,41.3387052 C77.2398689,37.3391912 79.5344889,33.9544174 82.7913689,31.8361562 C85.4856968,30.080814 88.6907628,29.1771566 92.2215167,29.1771566 C98.2245386,29.1624071 103.428145,31.7398716 106.381543,36.1837761 C106.914487,36.9836789 107.743511,38.6649561 108.069199,39.5907695 C108.365279,40.4499244 108.690967,41.7682827 108.861213,42.8274132 C109.046262,44.0198609 109.046262,47.2268786 108.861213,48.4415459 C108.195033,52.7225071 106.351935,56.122094 103.413341,58.4847699 C100.089843,61.1585191 95.6708487,62.3435603 90.6374888,61.9139828 Z M94.5457447,56.6998016 C96.9217867,56.2702242 99.1497886,54.9814919 100.593179,53.2187431 C102.073579,51.4041488 102.880397,49.3451398 103.117261,46.7676752 C103.220889,45.6344795 103.132065,44.2420561 102.887799,43.0273889 C101.932941,38.3612893 98.8315026,35.1987106 94.4125087,34.3988078 C93.2355907,34.1840191 91.4221007,34.2136451 90.2007708,34.4728729 C85.4560888,35.4579384 82.3546509,39.2278506 81.8587169,44.590162 C81.3849889,49.7524977 84.0126988,54.3963778 88.3946828,56.1369071 C89.0312548,56.3887283 90.2747908,56.7072081 91.0075887,56.8034927 C91.7329847,56.9071838 93.7685347,56.8479318 94.5457447,56.6998016 Z" id="Shape" transform="translate(92.469382, 45.588547) scale(-1, 1) rotate(-180.000000) translate(-92.469382, -45.588547) "></path>
                <polygon id="Path" transform="translate(12.361340, 45.624086) scale(-1, 1) rotate(-180.000000) translate(-12.361340, -45.624086) " points="-1.29141142e-12 58.6965712 -1.29141142e-12 56.1413262 4.77428993 56.1413262 9.54857987 56.1413262 9.54857987 43.0688406 9.54857987 29.996355 12.3613398 29.996355 15.1740998 29.996355 15.1740998 43.0688406 15.1740998 56.1413262 19.9483897 56.1413262 24.7226797 56.1413262 24.7226797 58.6965712 24.7226797 61.2518163 12.3613398 61.2518163 -1.29141142e-12 61.2518163"></polygon>
                <path d="M30.2741796,61.2221903 C30.2741796,61.1999707 32.3393376,54.1860082 34.8634195,45.6314922 C37.3875015,37.0695696 39.4526595,30.0482006 39.4526595,30.0333876 C39.4526595,30.011168 40.6221754,30.0037615 42.0581634,30.011168 L44.6562654,30.0333876 L48.2536373,41.8615799 C50.2299713,48.3644934 51.8732153,53.6675527 51.8954213,53.6379267 C51.9176273,53.6083006 53.5534693,48.2756153 55.5224012,41.7949213 L59.1049692,29.996355 L61.7844931,29.996355 L64.4640171,29.996355 L64.5824491,30.4259324 C64.6490671,30.6555342 66.6846171,37.6546837 69.105071,45.9721915 C71.525525,54.2971058 73.501859,61.1333122 73.501859,61.1777512 C73.501859,61.2295968 72.539599,61.2518163 70.659491,61.2518163 L67.8245251,61.2518163 L67.7134951,60.8666779 C67.6542791,60.6518892 66.2775071,55.6006511 64.6490671,49.6384127 L61.7030712,38.8026923 L61.5772372,39.1582047 C61.5180212,39.3507739 59.9636012,44.4020119 58.1427092,50.3864699 L54.8192112,61.2518163 L52.0434613,61.2370033 L49.2677113,61.2147838 L48.9050133,60.0297426 C48.6977573,59.3779699 47.1285334,54.3267319 45.4112694,48.8088838 C42.4134594,39.2026437 42.2802234,38.7878793 42.2062034,39.0693266 C42.1617914,39.2322698 40.8590394,44.2316623 39.3046195,50.1790877 C37.7576015,56.1265132 36.4696535,61.0518406 36.4474475,61.1259057 C36.4104375,61.2444098 36.1957795,61.2518163 33.3386075,61.2518163 C31.6509516,61.2518163 30.2741796,61.2370033 30.2741796,61.2221903 Z" id="Path" transform="translate(51.888019, 45.624086) scale(-1, 1) rotate(-180.000000) translate(-51.888019, -45.624086) "></path>
            </g>
        </g>
    </g>
</svg>