<?xml version="1.0" encoding="UTF-8"?>
<svg width="150px" height="31px" viewBox="0 0 150 31" version="1.1" xmlns="http://www.w3.org/2000/svg" xmlns:xlink="http://www.w3.org/1999/xlink">
    <!-- Generator: Sketch 60 (88103) - https://sketch.com -->
    <title>Group 3 Copy 2</title>
    <desc>Created with Sketch.</desc>
    <defs>
        <polygon id="path-1" points="0 0 150 0 150 30.3797468 0 30.3797468"></polygon>
    </defs>
    <g id="Design" stroke="none" stroke-width="1" fill="none" fill-rule="evenodd">
        <g id="1.3-services_1440" transform="translate(-581.000000, -7462.000000)">
            <g id="Group-3-Copy-2" transform="translate(581.000000, 7462.000000)">
                <mask id="mask-2" fill="white">
                    <use xlink:href="#path-1"></use>
                </mask>
                <g id="Clip-2"></g>
                <path d="M73.1443714,29.8521925 C73.5560347,29.8519192 73.8479464,29.6933796 73.8482179,29.2248676 C73.8501187,26.4755717 73.8493041,23.7260025 73.8493041,20.9209444 L64.92604,20.9209444 L64.92604,29.8532859 C67.7449562,29.8532859 70.4446638,29.8543793 73.1443714,29.8521925 M120.489726,0.434067519 C119.830142,0.432703856 119.795384,0.889735345 119.794026,1.36207411 C119.788052,3.76886972 119.802444,6.17539198 119.783087,8.58191425 C119.777462,9.28632223 120.085938,9.55009938 120.7591,9.54631354 C123.10444,9.53260535 125.450324,9.54381246 127.796207,9.53889227 C128.262723,9.53779889 128.730868,9.50909775 128.731139,8.85170497 L128.731139,0.436530675 C125.876379,0.436530675 123.182917,0.439810805 120.489726,0.434067519 M30.452767,9.54572587 C31.1756217,9.55419954 31.5183124,9.27265502 31.5088083,8.49389742 C31.4794814,6.12865013 31.4898001,3.76285615 31.5020197,1.39733551 C31.5055498,0.716161783 31.242422,0.414389795 30.53586,0.421496744 C28.1408267,0.445277689 25.7452503,0.444184312 23.350217,0.422043432 C22.6596762,0.415756516 22.3702085,0.679260317 22.3756394,1.38202823 C22.3938329,3.74754887 22.4017078,6.11334285 22.3699369,8.47859015 C22.3596182,9.24668732 22.6653787,9.55529292 23.4028968,9.54545253 C24.5776037,9.52987191 25.7528536,9.54135236 26.9278319,9.54162571 C28.1028103,9.54189905 29.2780602,9.53178532 30.452767,9.54572587 M148.465996,29.8901874 C149.653737,29.9347425 150.012178,29.5919689 149.999687,28.3758606 C149.939675,22.5555427 149.973347,16.7344048 149.973075,10.9135402 C149.973075,7.82119736 149.980407,4.72885452 149.963571,1.63651168 C149.960584,1.13383171 150.134916,0.443090935 149.268686,0.439810805 C146.572237,0.430517102 143.876059,0.436530675 141.101133,0.436530675 L141.101133,29.862853 C143.612931,29.862853 146.042451,29.7988904 148.465996,29.8901874 M52.695892,1.69746743 C52.7029522,0.789418026 52.4927758,0.380495115 51.493216,0.4094696 C49.277946,0.47343214 47.0594174,0.457304833 44.8430612,0.414936483 C44.0064288,0.398809176 43.6097005,0.605184041 43.612132,1.54220793 C43.6349543,10.6054813 43.6346827,19.6687547 43.612132,28.7317547 C43.6097005,29.6488245 43.9681409,29.8956543 44.8235099,29.8776136 C46.9942464,29.8319651 49.1685131,29.8073641 51.3373488,29.8858139 C52.4349366,29.9251754 52.7149002,29.5389401 52.7024091,28.4764512 C52.6497293,24.0138339 52.6801424,19.5503966 52.6801424,15.0869593 C52.6801424,10.6237954 52.6611342,6.16035805 52.695892,1.69746743 M79.1471612,0 C78.8375991,0.192434311 78.6801026,0.234255972 78.6219918,0.334573291 C77.0733665,3.00569273 75.5366892,5.68391913 73.9937664,8.35859205 C73.6714416,8.91676088 73.8805319,9.3819927 74.1680988,9.88248592 C77.8323368,16.2615193 81.4829975,22.647933 85.1415331,29.0302466 C85.3639291,29.4183953 85.5599851,29.8521927 86.1193693,29.8521927 C89.3578236,29.8497324 92.5960064,29.8510992 96.2643176,29.8510992 C90.4445496,19.7018293 84.8037302,9.86417185 79.1471612,0 M115.085695,29.8396187 C116.582455,27.2455823 118.058578,24.6395188 119.565113,22.051496 C119.920295,21.4416651 119.760626,20.9400785 119.448892,20.398037 C115.809364,14.0646521 112.167936,7.73208716 108.552576,1.38448833 C108.140098,0.660672912 107.636381,0.392248915 106.810339,0.411109665 C104.55135,0.462771717 102.29046,0.412476386 100.030928,0.437897395 C99.2461612,0.44664441 98.4331533,0.280451141 97.4629204,0.650285833 C103.160764,10.5855272 108.79045,20.4021371 114.512733,30.3797468 C114.838317,30.0777015 115.003145,29.9828511 115.085695,29.8396187 M0,0.431610479 C3.64930301,0.431610479 6.81145299,0.441997558 9.97360297,0.422564688 C10.5837662,0.419036646 10.8515103,0.78832465 11.1062202,1.23250896 C14.810647,7.69081218 18.5156169,14.1488421 22.2195006,20.6074186 C22.4503144,21.0095079 22.610798,21.3861762 22.3273042,21.8724555 C20.7498951,24.5780164 19.2020845,27.3007979 17.6341794,30.0120989 C17.5763402,30.1121429 17.4193868,30.1539645 17.1410524,30.3272648 C11.4820395,20.4573527 5.83714693,10.6123149 0,0.431610479" id="Fill-1" fill="#FFFFFF" mask="url(#mask-2)"></path>
            </g>
        </g>
    </g>
</svg>