<?xml version="1.0" encoding="UTF-8"?>
<svg width="113px" height="44px" viewBox="0 0 113 44" version="1.1" xmlns="http://www.w3.org/2000/svg" xmlns:xlink="http://www.w3.org/1999/xlink">
    <!-- Generator: Sketch 60 (88103) - https://sketch.com -->
    <title>Group 34 Copy</title>
    <desc>Created with Sketch.</desc>
    <g id="Design" stroke="none" stroke-width="1" fill="none" fill-rule="evenodd">
        <g id="1.3-services_1440" transform="translate(-839.000000, -7731.000000)" fill="#FFFFFF" fill-rule="nonzero">
            <g id="Group-34-Copy" transform="translate(839.000000, 7731.000000)">
                <path d="M0,15.6028813 L0,21.8195365 L16.5900867,19.9769268 L16.5900867,13.2479572 L0,15.6028813 Z M5.29434602,22.1983909 L5.29434602,43.4960317 L11.3681493,43.4960317 L11.3681493,21.5698371 L5.29434602,22.1983909 Z M18.8262345,12.9293751 L18.8262345,43.4960317 L25.228006,43.4960317 L25.228006,12.0209858 L18.8262345,12.9293751 Z M26.4206182,11.8530844 L26.4206182,18.8834154 L35.6591029,17.8544815 L35.6591029,10.5400097 L26.4206182,11.8530844 Z M26.4206182,24.1141884 L26.4206182,31.2779794 L32.4859028,30.9421767 L32.4859028,23.5889585 L26.4206182,24.1141884 Z M26.4206182,36.4355646 L26.4206182,43.4960317 L35.6591029,43.4960317 L35.6591029,36.155729 L26.4206182,36.4355646 Z M59.5581983,7.13462586 L59.5581983,43.4960317 L67.9448172,43.4960317 L67.9448172,5.94209574 L59.5581983,7.13462586 L59.5581983,7.13462586 Z M69.5122503,5.71822726 L69.5122503,14.0831588 L81.7365247,12.7227273 L81.7365247,3.98324661 L69.5122503,5.71822726 L69.5122503,5.71822726 Z M69.5122503,20.3730018 L69.5122503,28.8929192 L77.5283076,28.4494874 L77.5283076,19.6798706 L69.5122503,20.3730018 Z M69.5122503,35.1181847 L69.5122503,43.4960317 L81.7365247,43.4960317 L81.7365247,34.7479407 L69.5122503,35.1181847 L69.5122503,35.1181847 Z M38.1039578,10.1912915 L38.1039578,43.4960317 L45.3959291,43.4960317 L45.3959291,9.15374726 L38.1039578,10.1912915 Z M46.7546551,35.8156211 L46.7546551,43.4960317 L57.3348285,43.4960317 L57.3348285,35.4927339 L46.7546551,35.8156211 Z M109.149567,3.56995098 C106.483227,1.03851519 102.607237,0.0138864167 98.3564267,0.616609223 L98.3564267,9.9157611 C100.060158,9.82104751 101.474256,10.4668219 102.096118,11.7669811 C103.075763,13.8162387 102.066302,16.8944302 99.6768187,19.744448 C95.9882397,24.1400193 86.1832642,33.142115 86.1832642,33.142115 L100.260347,32.6728522 C108.859932,24.183071 111.947946,19.0254858 112.501658,12.5935724 C112.818323,9.22448362 111.581781,5.89579207 109.149567,3.56995098 Z M84.445458,34.6575323 L84.4497173,43.4960317 L113,43.4960317 L113,33.7878894 L84.445458,34.6575323 L84.445458,34.6575323 Z" id="Shape"></path>
                <path d="M96.8526621,0.448412698 C88.1286386,2.22277692 83.8584822,8.36447725 84.3379227,18.3849206 L93.6399632,17.5920284 C93.2142917,11.9346352 95.0245154,10.5931473 96.8571429,9.85168592 L96.8526621,0.448412698 Z" id="Path"></path>
            </g>
        </g>
    </g>
</svg>