<?xml version="1.0" encoding="UTF-8"?>
<svg width="114px" height="44px" viewBox="0 0 114 44" version="1.1" xmlns="http://www.w3.org/2000/svg" xmlns:xlink="http://www.w3.org/1999/xlink">
    <!-- Generator: Sketch 60 (88103) - https://sketch.com -->
    <title>Group 5</title>
    <desc>Created with Sketch.</desc>
    <defs>
        <polygon id="path-1" points="0.0216131387 0.449368092 69.9662774 0.449368092 69.9662774 35.75 0.0216131387 35.75"></polygon>
    </defs>
    <g id="Design" stroke="none" stroke-width="1" fill="none" fill-rule="evenodd">
        <g id="1.3-services_1440" transform="translate(-358.000000, -7870.000000)">
            <g id="Group-5" transform="translate(358.000000, 7870.000000)">
                <polygon id="Fill-1" fill="#FFFFFF" points="26.993573 0 12.0072468 26.4027719 5.24048793 26.4027719 0 35.3944468 6.9044366 35.3944468 2.53984632 43.0833333 14.1946791 43.0833333 18.7791428 35.3944468 33.4957645 35.3944468 32.2623157 26.4027719 24.1398419 26.4027719 31.6355737 13.8305363 35.9606073 43.0800553 47 43.0800553 40.6293216 0.00280975207 39.8797998 0.00280975207 39.8813409 0"></polygon>
                <g id="Group-4" transform="translate(44.000000, 8.250000)">
                    <mask id="mask-2" fill="white">
                        <use xlink:href="#path-1"></use>
                    </mask>
                    <g id="Clip-3"></g>
                    <path d="M24.7842409,19.1122793 C24.1077445,23.4766016 20.0988394,26.5600391 15.8324161,25.9988582 C11.5665036,25.4372069 8.65664964,21.4444964 9.33416788,17.0797036 C10.0106642,12.7153813 14.0195693,9.63241414 18.2854818,10.1935951 C22.5519051,10.754776 25.4617591,14.7479569 24.7842409,19.1122793 L24.7842409,19.1122793 Z M59.8041679,1.17706875 L56.5489124,18.7618352 L48.2648978,1.2622102 L48.2786934,1.17706875 L48.2250438,1.17706875 L48.2219781,1.17095362 L38.1179635,1.17706875 L35.3823431,14.6256543 C33.6747518,6.54145033 26.1244599,0.449368092 17.0663577,0.449368092 C9.47774453,0.449368092 2.94475182,4.72525625 0.0216131387,10.8667299 L2.70051825,29.3824076 C6.12694161,33.2730424 11.2911022,35.7501411 17.0663577,35.7501411 C23.6218321,35.7501411 29.3848248,32.5571016 32.7177445,27.7294405 L31.2707372,34.845572 L42.6582555,34.845572 L45.3857007,18.5073516 L53.5711022,34.845572 L64.0394234,34.845572 L69.9664307,1.17706875 L59.8041679,1.17706875 Z" id="Fill-2" fill="#FFFFFF" mask="url(#mask-2)"></path>
                </g>
            </g>
        </g>
    </g>
</svg>