<?xml version="1.0" encoding="UTF-8"?>
<svg width="150px" height="33px" viewBox="0 0 150 33" version="1.1" xmlns="http://www.w3.org/2000/svg" xmlns:xlink="http://www.w3.org/1999/xlink">
    <!-- Generator: Sketch 60 (88103) - https://sketch.com -->
    <title>Fill 1</title>
    <desc>Created with Sketch.</desc>
    <g id="Design" stroke="none" stroke-width="1" fill="none" fill-rule="evenodd">
        <g id="1.3-services_1440" transform="translate(-340.000000, -7460.000000)" fill="#FFFFFF">
            <path d="M489.808377,7462.09151 C489.808377,7460.93623 487.340528,7460 484.297008,7460 C481.252686,7460 478.785639,7460.93623 478.785639,7462.09151 C478.785639,7463.24598 481.252686,7464.18303 484.297008,7464.18303 C487.340528,7464.18303 489.808377,7463.24598 489.808377,7462.09151 L489.808377,7462.09151 Z M445.043937,7482.2205 C445.043937,7481.47249 444.783362,7480.32857 443.434784,7480.32857 C442.087008,7480.32857 438.696321,7480.24014 438.696321,7483.53967 L438.696321,7486.92763 C438.696321,7488.07074 439.304865,7489.91967 441.435169,7489.91967 L444.434592,7489.91967 C444.695969,7489.91967 445.043937,7489.61138 445.043937,7489.39071 L445.043937,7482.2205 Z M453.391969,7490.00729 L453.391969,7492.55881 L441.217889,7492.55881 C436.087361,7492.55881 435.56621,7491.67937 434.435714,7490.88674 C433.304416,7490.09572 432.347904,7488.5997 432.347904,7484.7274 C432.347904,7480.85591 433.565793,7480.15252 434.956865,7479.09621 C436.347936,7478.04072 444.260607,7477.86467 444.260607,7477.86467 C444.695969,7477.86467 445.043937,7477.33652 445.043937,7476.98442 L445.043937,7473.20136 C445.043937,7472.45335 444.810622,7471.78484 444.218114,7471.26561 C442.608961,7469.85802 440.526763,7470.73259 439.739425,7471.52928 C438.956897,7472.32111 438.565633,7475.31316 438.565633,7475.31316 L432.869857,7475.31316 C432.869857,7474.4329 432.521888,7472.23349 434.522305,7469.94564 C436.52192,7467.65779 440.869921,7467.65779 442.174401,7467.65779 C443.478881,7467.65779 446.869568,7467.57017 448.957378,7469.0662 C451.043584,7470.56141 451.130977,7472.67321 451.130977,7474.69738 L451.130977,7487.8955 C451.130977,7489.12704 452.348065,7490.00729 453.391969,7490.00729 L453.391969,7490.00729 Z M368.522177,7477.51257 C368.522177,7478.04072 369.043328,7478.48044 369.56528,7478.48044 L374.261249,7478.48044 C374.869793,7478.48044 375.305154,7477.95229 375.305154,7477.42495 L375.305154,7474.25766 C375.305154,7473.02531 375.043777,7470.73746 372.000257,7470.73746 C368.956736,7470.73746 368.522177,7472.84926 368.522177,7474.25766 L368.522177,7477.51257 Z M381.391392,7485.16712 C381.391392,7485.16712 381.913345,7489.39071 379.390975,7491.23965 C376.870209,7493.08696 373.391328,7492.99934 372.348225,7492.99934 C371.30432,7492.99934 366.261185,7492.99934 364.608736,7491.32727 C362.956287,7489.65519 362.435137,7487.80707 362.435137,7485.16712 L362.435137,7475.22472 C362.435137,7473.46503 362.956287,7471.08956 364.348161,7469.94564 C365.739232,7468.80172 367.304288,7468.09833 372.173439,7468.09833 C374.087265,7468.09833 378.347872,7468.44962 379.565761,7469.68197 C380.782849,7470.91351 381.391392,7471.79295 381.391392,7474.69738 L381.391392,7481.12039 L369.478689,7481.12039 C368.869344,7481.12039 368.522177,7481.73616 368.522177,7482.17588 L368.522177,7487.1913 C368.522177,7488.5997 369.392098,7490.53545 372.261634,7490.53545 C375.13117,7490.53545 375.305154,7488.51127 375.305154,7487.5434 L375.305154,7485.16712 L381.391392,7485.16712 Z M472.000257,7468.09833 C469.478689,7468.09833 466.261185,7469.94564 465.652641,7470.38536 C465.13149,7470.20931 464.26157,7469.50592 464.26157,7468.80172 L456.522081,7468.80172 L456.522081,7471.44166 C458.087938,7471.44166 458.783073,7472.67321 458.783073,7473.11293 L458.783073,7487.98393 C458.69568,7489.56757 457.565184,7489.91967 456.522081,7489.91967 L456.522081,7492.55881 L467.131105,7492.55881 L467.131105,7490.00729 C466.087201,7490.00729 464.870113,7489.12704 464.870113,7487.8955 L464.870113,7474.52133 C465.478657,7473.64108 467.739649,7471.79295 468.60957,7471.88139 C469.478689,7471.96982 469.740066,7472.67321 469.740066,7473.64108 L469.740066,7481.12039 L475.827106,7481.12039 L475.827106,7471.44166 C475.827106,7469.41749 474.522626,7468.09833 472.000257,7468.09833 L472.000257,7468.09833 Z M401.461307,7468.09833 C398.939739,7468.09833 395.721433,7469.94564 395.113691,7470.38536 C394.590937,7470.20931 393.721818,7469.50592 393.721818,7468.80172 L385.983131,7468.80172 L385.983131,7471.44166 C387.548186,7471.44166 388.243321,7472.67321 388.243321,7473.11293 L388.243321,7487.98393 C388.15673,7489.56757 387.027036,7489.91967 385.983131,7489.91967 L385.983131,7492.55881 L396.591354,7492.55881 L396.591354,7490.00729 C395.548251,7490.00729 394.331163,7489.12704 394.331163,7487.8955 L394.331163,7474.52133 C394.939707,7473.64108 397.200699,7471.79295 398.069818,7471.88139 C398.939739,7471.96982 399.200314,7472.67321 399.200314,7473.64108 L399.200314,7481.12039 L405.287354,7481.12039 L405.287354,7471.44166 C405.287354,7469.41749 403.982874,7468.09833 401.461307,7468.09833 L401.461307,7468.09833 Z M490,7471.44166 L490,7468.80172 L479.391777,7468.80172 L479.391777,7471.44166 C480.956833,7471.44166 481.651968,7472.67321 481.651968,7473.11293 L481.651968,7487.98393 C481.566178,7489.56757 480.435682,7489.91967 479.391777,7489.91967 L479.391777,7492.55881 L490,7492.55881 L490,7490.00729 C488.956897,7490.00729 487.739809,7489.12704 487.739809,7487.8955 L487.739809,7473.28898 C487.739809,7472.23349 488.870306,7471.44166 490,7471.44166 L490,7471.44166 Z M424.939547,7468.09833 C422.417979,7468.09833 419.200475,7469.94564 418.591931,7470.38536 C418.069979,7470.20931 417.200058,7469.50592 417.200058,7468.80172 L409.461371,7468.80172 L409.461371,7471.44166 C411.026426,7471.44166 411.721561,7472.67321 411.721561,7473.11293 L411.721561,7487.98393 C411.63497,7489.56757 410.505276,7489.91967 409.461371,7489.91967 L409.461371,7492.55881 L420.070395,7492.55881 L420.070395,7490.00729 C419.02649,7490.00729 417.808601,7489.12704 417.808601,7487.8955 L417.808601,7474.52133 C418.417947,7473.64108 420.678137,7471.79295 421.548058,7471.88139 C422.417979,7471.96982 422.677752,7472.67321 422.677752,7473.64108 L422.677752,7481.12039 L428.765594,7481.12039 L428.765594,7471.44166 C428.765594,7469.41749 427.461114,7468.09833 424.939547,7468.09833 L424.939547,7468.09833 Z M342.347583,7460.17848 L476.122959,7460.17848 L476.122959,7464.22603 L353.043199,7464.22603 C351.913505,7464.22603 350.435041,7464.49051 350.435041,7466.77754 L350.435041,7472.76164 C350.695616,7473.46503 351.739521,7473.72951 352.260672,7473.72951 C352.783426,7473.72951 354.609057,7473.64108 354.609057,7470.73746 L357.218017,7470.73746 L357.218017,7480.50462 L354.609057,7480.50462 C354.609057,7479.62437 353.647734,7478.15025 352.348065,7478.04072 C351.30416,7477.95229 350.435041,7478.30439 350.435041,7479.71199 L350.435041,7487.10368 C350.435041,7487.8955 351.390751,7489.39071 353.652545,7489.39071 L355.2176,7489.39071 L355.2176,7492.55881 L340,7492.55881 L340,7489.39071 L341.73904,7489.39071 C342.608159,7489.39071 344.348,7489.21547 344.348,7487.10368 L344.348,7468.09833 C344.348,7466.9544 344.261409,7464.22603 342.087008,7464.22603 L340.087393,7464.22603 L342.347583,7460.17848 Z" id="Fill-1"></path>
        </g>
    </g>
</svg>